<svg xmlns="http://www.w3.org/2000/svg" viewBox="0 0 48 48"><defs><linearGradient id="svgo-viewbox-id-1b" y2="1045.5" spreadMethod="reflect" gradientUnits="userSpaceOnUse" x2="25.179" y1="1045.3" x1="18.929"><stop offset="0" stop-color="#ffd543"/><stop offset="1" stop-color="#ffeca9"/></linearGradient><linearGradient id="svgo-viewbox-id-2c" y2="35.135" gradientUnits="userSpaceOnUse" x2="30.702" gradientTransform="translate(.357 1005.3)" y1="1.106" x1="8.719"><stop offset="0" stop-color="#729fcf"/><stop offset="1" stop-color="#3465a4"/></linearGradient><linearGradient id="svgo-viewbox-id-3d" y2="1039.6" gradientUnits="userSpaceOnUse" x2="42.623" gradientTransform="translate(0 -4.6)" y1="1015.4" x1="15.536"><stop offset="0" stop-color="#fff"/><stop offset="1" stop-color="#fff" stop-opacity="0"/></linearGradient><linearGradient id="svgo-viewbox-id-4e" y2="31.795" gradientUnits="userSpaceOnUse" x2="21.571" gradientTransform="matrix(.71907 -.28041 .46212 1.185 -6.21 1005.7)" y1="21.437" x1="21.732"/><linearGradient id="svgo-viewbox-id-5f" y2="31.795" gradientUnits="userSpaceOnUse" x2="21.571" gradientTransform="matrix(-.71907 -.28041 -.46212 1.185 53.825 1005.7)" y1="21.437" x1="21.732"/><linearGradient id="svgo-viewbox-id-6g" y2="1040.7" spreadMethod="reflect" gradientUnits="userSpaceOnUse" x2="26.034" gradientTransform="translate(0 -4.6)" y1="1040.8" x1="23.887"><stop offset="0" stop-color="#fff"/><stop offset="1" stop-color="#fff" stop-opacity="0"/></linearGradient><filter id="svgo-viewbox-id-0a" height="1.831" width="1.212" y="-.415" x="-.106"><feGaussianBlur stdDeviation="1.154"/></filter></defs>&gt;<path d="M.148 47.333c0 1.842-5.84 3.335-13.043 3.335-7.203 0-13.043-1.493-13.043-3.335 0-1.842 5.84-3.335 13.043-3.335 7.204 0 13.043 1.493 13.043 3.335z" transform="translate(35.244 1.96) scale(.87934)" opacity=".193" filter="url(#svgo-viewbox-id-0a)" fill="url(#radialGradient4145)"/><path d="M21.289 39.88h5.276c0 3.517-5.276 3.517-5.276 0z" stroke="#5a5249" fill="#d0bfac" stroke-width=".87934"/><path d="M18.06 31.965c3.663-2.59 7.271-2.546 10.992 0 .041.928.088 1.66-1.413 2.124 2.101.18 1.94 1.685.314 2.512 1.804.869 2.43 1.49 1.099 2.723-4.313 2.99-6.88 2.886-10.993-.04-.732-.58-.195-1.372 1.806-1.701-2.274-.384-2.358-2.471-.157-2.788-1.753-1.072-1.59-1.875-1.649-2.83z" stroke-linejoin="bevel" stroke="#d59600" stroke-linecap="square" fill="none" stroke-width=".87934"/><path d="M17.804 1040.7c4.167-2.946 8.095-2.406 11.585-.032.141.818-.278 1.508-1.118 2.162 2.407 1.057.897 2.5.2 2.984 2.257 1.319 2.18 1.663.666 3.064-5.251 3.194-7.823 1.767-10.575.303-1.134-.96-2.022-1.118.964-2.33-2.317-1.178-2.066-2.336-.1-3.344-1.35-1.07-1.538-1.745-1.622-2.808z" transform="translate(2.792 -882.9) scale(.87934)" fill="url(#svgo-viewbox-id-1b)"/><path d="M23.908 1.364c-7.042 0-12.75 5.709-12.75 12.75 0 2.998 1.044 5.738 2.774 7.915.01.01.02.017.028.027 2.712 4.525 2.966 5.428 3.435 7.255.187.73.401 2.278 1.126 2.995 1.624 1.604 8.017 2.054 10.14 0 1.82-3.648 3.103-7.69 5.166-10.223 1.76-2.185 2.831-4.944 2.831-7.968 0-7.042-5.709-12.75-12.75-12.75z" opacity=".26" fill="#ffc803"/><path d="M24.013 1005.6c-8.008 0-14.5 6.492-14.5 14.5a14.4 14.4 0 0 0 3.156 9c.01.011.023.02.032.031 3.084 5.146 3.372 6.173 3.906 8.25.214.831.456 2.591 1.281 3.406 1.846 1.824 9.116 2.336 11.53 0 2.07-4.148 3.53-8.744 5.876-11.625 2-2.485 3.219-5.623 3.219-9.062 0-8.008-6.492-14.5-14.5-14.5z" transform="translate(2.792 -882.9) scale(.87934)" stroke="url(#svgo-viewbox-id-2c)" fill="url(#radialGradient4149)"/><path d="M24.3 1006.5c-7.789.089-13.811 6.053-13.799 13.897.005 3.288 1.472 6.213 2.896 8.02 1.256 1.823 3.313 5.488 4.011 8.394.39.55.427 2.512 1.13 3.254 2.025 1.495 7.751 1.954 10.164.09 1.931-4.004 3.293-8.406 5.484-11.187 1.829-2.216 3.153-4.272 3.384-8.7.023-7.237-5.472-13.21-13.269-13.768z" transform="translate(2.792 -882.9) scale(.87934)" opacity=".75" stroke="url(#svgo-viewbox-id-3d)" fill="none"/><path d="m18.69 1025.9 3.425 8.782" transform="translate(2.973 -885.94) scale(.87934)" stroke="url(#svgo-viewbox-id-4e)" stroke-linecap="round" fill="none"/><path d="m28.925 1025.9-3.425 8.8" transform="translate(2.973 -885.94) scale(.87934)" stroke="url(#svgo-viewbox-id-5f)" stroke-linecap="round" fill="none"/><path d="M19.441 16.175c.965.147 2.25-.045 2.944-1.119.924.52 1.867.855 2.944-.019.699.657 1.652 1.195 3.062 1.138" stroke-linejoin="round" stroke="#fff" stroke-linecap="round" fill="none" stroke-width=".87934"/><path d="m20.725 1040.9.153-8.77c1.875-1.686 4.354-1.646 6.424 0l-.06 8.77" transform="translate(2.792 -882.9) scale(.87934)" opacity=".5" stroke-linejoin="round" stroke="#d3cdc2" stroke-linecap="round" fill="url(#svgo-viewbox-id-6g)"/><path d="M27.358 7.41c1.312 2.91-.383 6.513-3.787 8.048-3.403 1.535-7.227.422-8.54-2.487s.384-6.514 3.787-8.049c3.404-1.535 7.227-.422 8.54 2.488z" opacity=".37" fill="#fff"/><path d="M19.973 34.842c1.14.769 2.76 1.233 7.752 1.855-3.887.435-7.394-.556-7.752-1.855zM20.236 37.505c1.14.77 2.761 1.234 7.753 1.856-3.887.435-7.394-.556-7.753-1.856z" fill="#d59600"/><text style="line-height:125%;text-align:center" xml:space="preserve" y="46.073" x="-24.159" font-size="40" font-family="Sans" letter-spacing="0" text-anchor="middle" word-spacing="0" font-weight="700"></text></svg>
